<svg width="32" height="32" viewBox="0 0 32 32" fill="none" xmlns="http://www.w3.org/2000/svg">
<rect width="32" height="32" fill="#F8F3FF"/>
<path d="M2.10101 16.1169L7.11962 18.4251V20.929L0 17.0855V15.0968L7.11962 11.2635V13.7675L2.10101 16.1169Z" fill="#E75E5B"/>
<path d="M28.9075 16.0654L23.6507 13.7263V11.2635L31 15.0968V17.0855L23.6507 20.9187V18.456L28.9075 16.0654Z" fill="#E75E5B"/>
<path d="M22.6372 18.325C22.5125 19.9256 22.0248 21.1759 21.1742 22.0758C20.3236 22.9688 19.1923 23.4153 17.7802 23.4153C16.7935 23.4153 15.9231 23.1337 15.1689 22.5704C14.4203 22.0002 13.8419 21.193 13.4336 20.1488C13.0253 19.1047 12.8127 17.8922 12.7957 16.5114V15.11C12.7957 13.6949 13.0026 12.4481 13.4166 11.3695C13.8306 10.291 14.4232 9.45979 15.1944 8.87587C15.9713 8.29196 16.8673 8 17.8823 8C19.249 8 20.3491 8.44996 21.1827 9.34987C22.0163 10.2498 22.5011 11.5207 22.6372 13.1625H20.4937C20.3916 12.084 20.1308 11.3077 19.7111 10.8337C19.2972 10.3528 18.6876 10.1124 17.8823 10.1124C16.9466 10.1124 16.2265 10.528 15.7218 11.3592C15.2227 12.1836 14.9676 13.3961 14.9562 14.9967V16.3259C14.9562 17.9471 15.1944 19.1837 15.6707 20.0355C16.1527 20.8873 16.8559 21.3132 17.7802 21.3132C18.6252 21.3132 19.2603 21.0831 19.6856 20.6228C20.1109 20.1626 20.3803 19.3966 20.4937 18.325H22.6372Z" fill="#4097D2"/>
<path d="M17.9479 18.325C17.8231 19.9256 17.3355 21.1759 16.4848 22.0758C15.6342 22.9688 14.5029 23.4153 13.0909 23.4153C12.1042 23.4153 11.2337 23.1337 10.4795 22.5704C9.73099 22.0002 9.15258 21.193 8.74428 20.1488C8.33599 19.1047 8.12334 17.8922 8.10632 16.5114V15.11C8.10632 13.6949 8.31331 12.4481 8.72727 11.3695C9.14123 10.291 9.73383 9.45979 10.505 8.87587C11.2819 8.29196 12.1779 8 13.193 8C14.5596 8 15.6598 8.44996 16.4934 9.34987C17.327 10.2498 17.8118 11.5207 17.9479 13.1625H15.8044C15.7023 12.084 15.4414 11.3077 15.0218 10.8337C14.6078 10.3528 13.9982 10.1124 13.193 10.1124C12.2573 10.1124 11.5371 10.528 11.0324 11.3592C10.5334 12.1836 10.2782 13.3961 10.2669 14.9967V16.3259C10.2669 17.9471 10.505 19.1837 10.9814 20.0355C11.4634 20.8873 12.1666 21.3132 13.0909 21.3132C13.9358 21.3132 14.571 21.0831 14.9963 20.6228C15.4216 20.1626 15.6909 19.3966 15.8044 18.325H17.9479Z" fill="#3F1F46"/>
</svg>
